<svg xmlns="http://www.w3.org/2000/svg" viewBox="0 0 64 64" id="google-translate">
  <path fill="#dedede" fill-rule="evenodd" d="m17.05,14.96h38.95c1.06,0,2.08.42,2.83,1.17s1.17,1.77,1.17,2.83v37.04c0,1.06-.42,2.08-1.17,2.83s-1.77,1.17-2.83,1.17h-20.95L17.05,14.96h0Z"></path>
  <path fill="#64808c" fill-rule="evenodd" d="m48.97,31c-1.02,2.23-2.25,4.28-3.71,6.13-.81-1.34-1.52-2.77-2.13-4.27-.1-.25-.39-.38-.65-.27-.52.2-1.34.53-1.86.74-.13.05-.22.15-.28.27-.05.12-.05.26,0,.38.8,1.95,1.74,3.78,2.84,5.49-.96.96-2.01,1.85-3.14,2.67-.1.08-.25.18-.39.28-.24.17-.3.5-.14.74.29.44.74,1.1,1.05,1.56.09.13.22.22.38.25.15.03.31,0,.44-.09,1.28-.9,2.47-1.87,3.56-2.93,1.72,2.18,3.73,4.1,6.05,5.76.09.06.21.15.33.23.1.07.23.1.35.08.12-.02.23-.09.3-.2.31-.47.84-1.25,1.15-1.72.14-.21.09-.5-.12-.64-2.33-1.62-4.32-3.54-5.98-5.73,2.16-2.56,3.89-5.48,5.23-8.73h4.27c.29,0,.53-.24.53-.53v-1.98c0-.29-.24-.53-.53-.53h-10.47v-2.5c0-.13-.05-.26-.15-.35s-.22-.15-.35-.15h-3c-.13,0-.26.05-.35.15-.09.09-.15.22-.15.35v2.5h-8c-.28,0-.5.22-.5.5v2.04c0,.28.22.5.5.5h14.93Z"></path>
  <polygon fill="#4a60d0" fill-rule="evenodd" points="35.01 60 31 49.96 37.07 47.64 44.01 49.96 35.01 60 35.01 60"></polygon>
  <path fill="#4296ff" fill-rule="evenodd" d="m29.05,4H8c-1.06,0-2.08.42-2.83,1.17s-1.17,1.77-1.17,2.83v37.96c0,1.06.42,2.08,1.17,2.83s1.77,1.17,2.83,1.17h36L29.05,4h0Z"></path>
  <path fill="#fff" fill-rule="evenodd" d="m25.32,28.47c-.66,2.58-3.01,4.49-5.79,4.49-3.3,0-5.98-2.68-5.98-5.98s2.68-5.98,5.98-5.98c1.25,0,2.41.39,3.37,1.04.02.02.12.09.22.17.21.15.5.12.67-.07.36-.41.96-1.09,1.34-1.51.09-.1.14-.24.12-.37-.01-.14-.08-.26-.18-.35-1.53-1.2-3.45-1.92-5.55-1.92-4.96,0-8.98,4.02-8.98,8.98s4.02,8.98,8.98,8.98c4.7,0,8.56-3.62,8.95-8.21.02-.22.03-.72.03-.72,0,0,0-.58.01-1.03,0-.14-.05-.27-.15-.36-.09-.1-.22-.15-.36-.15-1.52,0-5.96-.02-7.46-.02-.28,0-.5.22-.5.5,0,.55,0,1.44,0,2,0,.13.05.26.15.35.09.09.22.15.35.15,1.32,0,4.78.02,4.78.02h0Z"></path>
</svg>
