<svg xmlns="http://www.w3.org/2000/svg"  viewBox="0 0 48 48" width="48px" height="48px" fill-rule="evenodd" clip-rule="evenodd" baseProfile="basic"><linearGradient id="9C-9aFF8pVbUiT-vTlaz4a" x1="-276.945" x2="-270.97" y1="-150.581" y2="-144.607" gradientTransform="translate(300.628 170.762)" gradientUnits="userSpaceOnUse"><stop offset="0" stop-color="#ffd647"/><stop offset="1" stop-color="#f5bf00"/></linearGradient><path fill="url(#9C-9aFF8pVbUiT-vTlaz4a)" d="M21.002,26.999v-5.999h13.001v5.999H21.002z"/><linearGradient id="9C-9aFF8pVbUiT-vTlaz4b" x1="-273.825" x2="-269.3" y1="-148.416" y2="-143.891" gradientTransform="translate(311.328 175.915)" gradientUnits="userSpaceOnUse"><stop offset="0" stop-color="#33c481"/><stop offset="1" stop-color="#21a366"/></linearGradient><path fill="url(#9C-9aFF8pVbUiT-vTlaz4b)" d="M34.003,32.999v-5.999l6-2.001l6,2.001v5.999h-4	l0.001-2c0-1.104-0.897-2-2.001-2c-1.104,0-2.001,0.896-2.001,2v2H34.003z"/><linearGradient id="9C-9aFF8pVbUiT-vTlaz4c" x1="-275.575" x2="-265.236" y1="-151.836" y2="-141.496" gradientTransform="translate(305.738 165.995)" gradientUnits="userSpaceOnUse"><stop offset="0" stop-color="#33c481"/><stop offset="1" stop-color="#0a8645"/></linearGradient><path fill="url(#9C-9aFF8pVbUiT-vTlaz4c)" fill-rule="evenodd" d="M34.003,26.999	v-5.999h12v5.999H34.003z" clip-rule="evenodd"/><linearGradient id="9C-9aFF8pVbUiT-vTlaz4d" x1="-280.986" x2="-268.801" y1="-154.014" y2="-141.828" gradientTransform="translate(282.472 166.497)" gradientUnits="userSpaceOnUse"><stop offset="0" stop-color="#55adfd"/><stop offset="1" stop-color="#438ffd"/></linearGradient><path fill="url(#9C-9aFF8pVbUiT-vTlaz4d)" d="M2.004,23.999c0-6.071,4.927-10.999,10.999-10.999	c5.031,0,9.276,3.385,10.583,8l-2.583,0.999l-4.003-0.999c-0.913-1.213-2.365-2-3.997-2c-2.759,0-4.999,2.241-4.999,4.999	c0,2.759,2.24,4.999,4.999,4.999c1.632,0,3.084-0.784,3.996-1.999l4.004-1l2.583,1c-1.307,4.616-5.553,7.999-10.583,7.999	C6.931,34.998,2.004,30.071,2.004,23.999z"/><linearGradient id="9C-9aFF8pVbUiT-vTlaz4e" x1="-278.372" x2="-272.665" y1="-151.369" y2="-145.663" gradientTransform="translate(294.02 170.725)" gradientUnits="userSpaceOnUse"><stop offset="0" stop-color="#f44f5b"/><stop offset="1" stop-color="#e5202e"/></linearGradient><path fill="url(#9C-9aFF8pVbUiT-vTlaz4e)" d="M18.002,23.999c0-1.124-0.373-2.163-1.001-2.999h6.585	c0.271,0.953,0.416,1.96,0.416,2.999c0,1.041-0.145,2.048-0.416,3h-6.587C17.629,26.165,18.002,25.125,18.002,23.999z"/></svg>