<svg xmlns="http://www.w3.org/2000/svg"  viewBox="0 0 48 48" width="48px" height="48px" fill-rule="evenodd" clip-rule="evenodd" baseProfile="basic"><linearGradient id="2OQtNkxbO82PhGggl2xqEa" x1="-189.557" x2="-230.058" y1="-69.686" y2="-110.188" gradientTransform="translate(254.62 121.627)" gradientUnits="userSpaceOnUse"><stop offset="0" stop-color="#fec600"/><stop offset="1" stop-color="#e36001"/></linearGradient><path fill="url(#2OQtNkxbO82PhGggl2xqEa)" d="M35.001,3.999l-3,1l-5,29l12,5v-32	c0-1.656-1.344-3-3-3H35.001z"/><linearGradient id="2OQtNkxbO82PhGggl2xqEb" x1="-205.875" x2="-190.4" y1="-75.839" y2="-60.365" gradientTransform="translate(218.685 90.148)" gradientUnits="userSpaceOnUse"><stop offset="0" stop-color="#ffd647"/><stop offset="1" stop-color="#f5bf00"/></linearGradient><path fill="url(#2OQtNkxbO82PhGggl2xqEb)" d="M36.001,3.999c-1.656,0-3.001,1.344-3.001,3l0.001,37	l-12-5l-12,5v-37c0-1.656,1.345-3,3.001-3H36.001z"/><path fill="#fff" fill-rule="evenodd" d="M15.001,22.999	c0-3.312,2.687-6,6-6c1.656,0,3.156,0.672,4.241,1.759l-1.415,1.415c-0.724-0.724-1.724-1.173-2.827-1.173c-2.208,0-4,1.793-4,4	c0,2.208,1.792,4,4,4c2.207,0,4-1.792,4-4c0-0.344-0.044-0.68-0.127-1h2.043c0.055,0.325,0.084,0.66,0.084,1c0,3.313-2.688,6-6,6	C17.687,28.999,15.001,26.313,15.001,22.999z" clip-rule="evenodd"/><path fill="#fff" fill-rule="evenodd" d="M25.001,21.999h-4v2h5	L25.001,21.999z" clip-rule="evenodd"/></svg>